<svg width="149" height="91" viewBox="0 0 149 91" fill="none" xmlns="http://www.w3.org/2000/svg">
<mask id="mask0_28_40" style="mask-type:luminance" maskUnits="userSpaceOnUse" x="0" y="0" width="149" height="91">
<path d="M0 0H148.438V90.8571H0V0Z" fill="white"/>
</mask>
<g mask="url(#mask0_28_40)">
<path d="M94.3142 9.71826H54.115V81.1391H94.3142V9.71826Z" fill="#FF5A00"/>
<path d="M56.791 45.4286C56.791 30.9181 63.6892 18.039 74.274 9.71814C66.484 3.661 56.6568 0 45.9378 0C20.5455 0 0 20.3181 0 45.4286C0 70.539 20.5455 90.8571 45.9378 90.8571C56.6568 90.8571 66.484 87.1961 74.274 81.139C63.6743 72.9357 56.791 59.939 56.791 45.4286Z" fill="#EB001B"/>
<path d="M148.548 45.4286C148.548 70.539 128.002 90.8572 102.61 90.8572C91.8911 90.8572 82.0639 87.1962 74.2739 81.139C84.9929 72.8033 91.7575 59.939 91.7575 45.4286C91.7575 30.9182 84.8593 18.039 74.2739 9.71819C82.3646 3.4069 92.3347 -0.0142246 102.595 4.44555e-05C128.002 4.44555e-05 148.548 20.45 148.548 45.4286Z" fill="#F79E1B"/>
</g>
</svg>
