<svg width="184" height="60" viewBox="0 0 184 60" fill="none" xmlns="http://www.w3.org/2000/svg">
<mask id="mask0_28_33" style="mask-type:luminance" maskUnits="userSpaceOnUse" x="0" y="0" width="184" height="60">
<path d="M0 0H183.469V59.3838H0V0Z" fill="white"/>
</mask>
<g mask="url(#mask0_28_33)">
<path d="M79.5031 58.5269H64.641L73.9367 1.04219H88.7983L79.5031 58.5269ZM133.38 2.44721C130.449 1.28447 125.799 0 120.05 0C105.373 0 95.0374 7.82737 94.9739 19.0182C94.8522 27.2744 102.374 31.8606 108 34.6136C113.749 37.4266 115.704 39.2628 115.704 41.7699C115.645 45.621 111.058 47.3965 106.779 47.3965C100.845 47.3965 97.6659 46.4815 92.834 44.3389L90.877 43.4202L88.7971 56.3243C92.283 57.9128 98.705 59.322 105.373 59.3838C120.967 59.3838 131.12 51.6775 131.24 39.7521C131.299 33.208 127.327 28.1936 118.765 24.0967C113.567 21.466 110.383 19.6928 110.383 17.0016C110.444 14.555 113.076 12.049 118.944 12.049C123.775 11.926 127.325 13.0876 130.015 14.2503L131.359 14.8608L133.38 2.44721ZM153.133 38.1624C154.357 34.8595 159.067 22.0783 159.067 22.0783C159.005 22.2012 160.288 18.7148 161.022 16.5746L162.061 21.5278C162.061 21.5278 164.875 35.2882 165.486 38.1624H153.133ZM171.479 1.04219H159.983C156.438 1.04219 153.744 2.08081 152.215 5.8113L130.139 58.5263H145.734C145.734 58.5263 148.301 51.4311 148.853 49.9031H167.934C168.361 51.9216 169.708 58.5263 169.708 58.5263H183.469L171.479 1.04219ZM52.2274 1.04219L37.6723 40.2414L36.0816 32.2911C33.3907 23.1181 24.9512 13.1511 15.5337 8.19555L28.8652 58.4663H44.5817L67.9428 1.04219H52.2274Z" fill="#00579F"/>
<path d="M24.1567 1.04224H0.244625L0 2.20378C18.6527 6.97408 31.0056 18.4726 36.0816 32.2935L30.8833 5.87429C30.0277 2.20259 27.398 1.16338 24.1561 1.04224H24.1567Z" fill="#FAA61A"/>
</g>
</svg>
